<mxfile host="app.diagrams.net" modified="2024-02-04T16:51:33.086Z" agent="Mozilla/5.0 (Macintosh; Intel Mac OS X 10_15_7) AppleWebKit/537.36 (KHTML, like Gecko) Chrome/120.0.0.0 Safari/537.36" etag="S-zRX7olN3PFKxacfZZO" version="23.1.1" type="github">
  <diagram name="Page-1" id="QdXoBBdP-_XnZy3_S582">
    <mxGraphModel dx="2556" dy="914" grid="1" gridSize="10" guides="1" tooltips="1" connect="1" arrows="1" fold="1" page="1" pageScale="1" pageWidth="850" pageHeight="1100" math="0" shadow="0">
      <root>
        <mxCell id="0" />
        <mxCell id="1" parent="0" />
        <mxCell id="CDoJwB1GRzomujANxyZj-19" value="Document&#xa;Inherits from:&#xa;fe-main-template&#xa;" style="swimlane;fontStyle=2;align=center;verticalAlign=top;childLayout=stackLayout;horizontal=1;startSize=50;horizontalStack=0;resizeParent=1;resizeLast=0;collapsible=1;marginBottom=0;rounded=0;shadow=0;strokeWidth=1;fontSize=11;" vertex="1" parent="1">
          <mxGeometry x="350" width="100" height="50" as="geometry">
            <mxRectangle x="360" y="20" width="160" height="26" as="alternateBounds" />
          </mxGeometry>
        </mxCell>
        <mxCell id="CDoJwB1GRzomujANxyZj-20" value="" style="endArrow=none;dashed=1;html=1;dashPattern=1 3;strokeWidth=2;rounded=0;entryX=0.5;entryY=1;entryDx=0;entryDy=0;" edge="1" parent="1">
          <mxGeometry width="50" height="50" relative="1" as="geometry">
            <mxPoint x="400" y="80" as="sourcePoint" />
            <mxPoint x="400" y="50" as="targetPoint" />
            <Array as="points">
              <mxPoint x="400" y="80" />
            </Array>
          </mxGeometry>
        </mxCell>
        <mxCell id="CDoJwB1GRzomujANxyZj-21" value="" style="endArrow=none;html=1;rounded=0;exitX=0.5;exitY=0;exitDx=0;exitDy=0;" edge="1" parent="1">
          <mxGeometry width="50" height="50" relative="1" as="geometry">
            <mxPoint x="399.38" y="112" as="sourcePoint" />
            <mxPoint x="399.38" y="70" as="targetPoint" />
          </mxGeometry>
        </mxCell>
        <mxCell id="CDoJwB1GRzomujANxyZj-22" value="Offcanvas Element:&#xa;&lt;div&gt;&#xa;" style="swimlane;fontStyle=0;align=center;verticalAlign=top;childLayout=stackLayout;horizontal=1;startSize=50;horizontalStack=0;resizeParent=1;resizeLast=0;collapsible=1;marginBottom=0;rounded=0;shadow=0;strokeWidth=1;fontSize=11;" vertex="1" parent="1">
          <mxGeometry x="40" y="203" width="100" height="40" as="geometry">
            <mxRectangle x="130" y="380" width="160" height="26" as="alternateBounds" />
          </mxGeometry>
        </mxCell>
        <mxCell id="CDoJwB1GRzomujANxyZj-23" value="Grid Container:&#xa;&lt;div&gt;&#xa;" style="swimlane;fontStyle=0;align=center;verticalAlign=top;childLayout=stackLayout;horizontal=1;startSize=50;horizontalStack=0;resizeParent=1;resizeLast=0;collapsible=1;marginBottom=0;rounded=0;shadow=0;strokeWidth=1;fontSize=11;" vertex="1" parent="1">
          <mxGeometry x="350" y="112" width="100" height="40" as="geometry">
            <mxRectangle x="130" y="380" width="160" height="26" as="alternateBounds" />
          </mxGeometry>
        </mxCell>
        <mxCell id="CDoJwB1GRzomujANxyZj-24" value="Element:&#xa;&lt;a&gt;&#xa;" style="swimlane;fontStyle=0;align=center;verticalAlign=top;childLayout=stackLayout;horizontal=1;startSize=50;horizontalStack=0;resizeParent=1;resizeLast=0;collapsible=1;marginBottom=0;rounded=0;shadow=0;strokeWidth=1;fontSize=11;" vertex="1" parent="1">
          <mxGeometry x="40" y="263" width="100" height="40" as="geometry">
            <mxRectangle x="130" y="380" width="160" height="26" as="alternateBounds" />
          </mxGeometry>
        </mxCell>
        <mxCell id="CDoJwB1GRzomujANxyZj-25" value="" style="endArrow=none;html=1;rounded=0;entryX=0.5;entryY=1;entryDx=0;entryDy=0;" edge="1" parent="1" target="CDoJwB1GRzomujANxyZj-23">
          <mxGeometry width="50" height="50" relative="1" as="geometry">
            <mxPoint x="400" y="183" as="sourcePoint" />
            <mxPoint x="420" y="253" as="targetPoint" />
          </mxGeometry>
        </mxCell>
        <mxCell id="CDoJwB1GRzomujANxyZj-26" value="" style="endArrow=none;html=1;rounded=0;exitX=0.5;exitY=0;exitDx=0;exitDy=0;" edge="1" parent="1" source="CDoJwB1GRzomujANxyZj-22">
          <mxGeometry width="50" height="50" relative="1" as="geometry">
            <mxPoint x="160" y="303" as="sourcePoint" />
            <mxPoint x="90" y="183" as="targetPoint" />
          </mxGeometry>
        </mxCell>
        <mxCell id="CDoJwB1GRzomujANxyZj-27" value="" style="endArrow=none;html=1;rounded=0;entryX=0;entryY=0.5;entryDx=0;entryDy=0;" edge="1" parent="1" target="CDoJwB1GRzomujANxyZj-22">
          <mxGeometry width="50" height="50" relative="1" as="geometry">
            <mxPoint x="20" y="223" as="sourcePoint" />
            <mxPoint x="210" y="253" as="targetPoint" />
          </mxGeometry>
        </mxCell>
        <mxCell id="CDoJwB1GRzomujANxyZj-28" value="" style="endArrow=none;html=1;rounded=0;entryX=0;entryY=0.5;entryDx=0;entryDy=0;" edge="1" parent="1" target="CDoJwB1GRzomujANxyZj-24">
          <mxGeometry width="50" height="50" relative="1" as="geometry">
            <mxPoint x="20" y="283" as="sourcePoint" />
            <mxPoint x="210" y="253" as="targetPoint" />
          </mxGeometry>
        </mxCell>
        <mxCell id="CDoJwB1GRzomujANxyZj-29" value="href:&#xa;&quot;Settings&quot;&#xa;" style="swimlane;fontStyle=0;align=center;verticalAlign=top;childLayout=stackLayout;horizontal=1;startSize=50;horizontalStack=0;resizeParent=1;resizeLast=0;collapsible=1;marginBottom=0;rounded=0;shadow=0;strokeWidth=1;fontSize=11;fillColor=#d5e8d4;strokeColor=#82b366;" vertex="1" parent="1">
          <mxGeometry x="160" y="263" width="100" height="40" as="geometry">
            <mxRectangle x="130" y="380" width="160" height="26" as="alternateBounds" />
          </mxGeometry>
        </mxCell>
        <mxCell id="CDoJwB1GRzomujANxyZj-30" value="" style="endArrow=none;html=1;rounded=0;entryX=0;entryY=0.5;entryDx=0;entryDy=0;exitX=1;exitY=0.5;exitDx=0;exitDy=0;" edge="1" parent="1" source="CDoJwB1GRzomujANxyZj-24" target="CDoJwB1GRzomujANxyZj-29">
          <mxGeometry width="50" height="50" relative="1" as="geometry">
            <mxPoint x="160" y="303" as="sourcePoint" />
            <mxPoint x="210" y="253" as="targetPoint" />
          </mxGeometry>
        </mxCell>
        <mxCell id="CDoJwB1GRzomujANxyZj-31" value="Content Element:&#xa;&lt;div&gt;&#xa;" style="swimlane;fontStyle=0;align=center;verticalAlign=top;childLayout=stackLayout;horizontal=1;startSize=50;horizontalStack=0;resizeParent=1;resizeLast=0;collapsible=1;marginBottom=0;rounded=0;shadow=0;strokeWidth=1;fontSize=11;" vertex="1" parent="1">
          <mxGeometry x="370" y="203" width="100" height="40" as="geometry">
            <mxRectangle x="130" y="380" width="160" height="26" as="alternateBounds" />
          </mxGeometry>
        </mxCell>
        <mxCell id="CDoJwB1GRzomujANxyZj-32" value="" style="endArrow=none;html=1;rounded=0;exitX=0.5;exitY=0;exitDx=0;exitDy=0;" edge="1" parent="1" source="CDoJwB1GRzomujANxyZj-31">
          <mxGeometry width="50" height="50" relative="1" as="geometry">
            <mxPoint x="210" y="303" as="sourcePoint" />
            <mxPoint x="420" y="183" as="targetPoint" />
          </mxGeometry>
        </mxCell>
        <mxCell id="CDoJwB1GRzomujANxyZj-33" value="Template Text:&#xa;&quot;{ getContent }&quot;&#xa;" style="swimlane;fontStyle=0;align=center;verticalAlign=top;childLayout=stackLayout;horizontal=1;startSize=50;horizontalStack=0;resizeParent=1;resizeLast=0;collapsible=1;marginBottom=0;rounded=0;shadow=0;strokeWidth=1;fontSize=11;" vertex="1" parent="1">
          <mxGeometry x="370" y="263" width="100" height="40" as="geometry">
            <mxRectangle x="130" y="380" width="160" height="26" as="alternateBounds" />
          </mxGeometry>
        </mxCell>
        <mxCell id="CDoJwB1GRzomujANxyZj-34" value="" style="endArrow=none;html=1;rounded=0;entryX=0.5;entryY=1;entryDx=0;entryDy=0;exitX=0.5;exitY=0;exitDx=0;exitDy=0;" edge="1" parent="1" source="CDoJwB1GRzomujANxyZj-33" target="CDoJwB1GRzomujANxyZj-31">
          <mxGeometry width="50" height="50" relative="1" as="geometry">
            <mxPoint x="210" y="303" as="sourcePoint" />
            <mxPoint x="260" y="253" as="targetPoint" />
          </mxGeometry>
        </mxCell>
        <mxCell id="CDoJwB1GRzomujANxyZj-35" value="" style="endArrow=none;html=1;rounded=0;" edge="1" parent="1">
          <mxGeometry width="50" height="50" relative="1" as="geometry">
            <mxPoint x="90" y="183" as="sourcePoint" />
            <mxPoint x="420" y="183" as="targetPoint" />
          </mxGeometry>
        </mxCell>
        <mxCell id="CDoJwB1GRzomujANxyZj-36" value="" style="endArrow=none;html=1;rounded=0;" edge="1" parent="1">
          <mxGeometry width="50" height="50" relative="1" as="geometry">
            <mxPoint x="20" y="283" as="sourcePoint" />
            <mxPoint x="20" y="223" as="targetPoint" />
          </mxGeometry>
        </mxCell>
        <mxCell id="CDoJwB1GRzomujANxyZj-37" value="" style="endArrow=none;dashed=1;html=1;dashPattern=1 3;strokeWidth=2;rounded=0;" edge="1" parent="1">
          <mxGeometry width="50" height="50" relative="1" as="geometry">
            <mxPoint y="183" as="sourcePoint" />
            <mxPoint x="90" y="183" as="targetPoint" />
          </mxGeometry>
        </mxCell>
        <mxCell id="CDoJwB1GRzomujANxyZj-38" value="" style="endArrow=none;dashed=1;html=1;dashPattern=1 3;strokeWidth=2;rounded=0;" edge="1" parent="1">
          <mxGeometry width="50" height="50" relative="1" as="geometry">
            <mxPoint x="21" y="335" as="sourcePoint" />
            <mxPoint x="21" y="284" as="targetPoint" />
          </mxGeometry>
        </mxCell>
        <mxCell id="CDoJwB1GRzomujANxyZj-39" value="element&#xa;&lt;div&gt;" style="swimlane;fontStyle=0;align=center;verticalAlign=top;childLayout=stackLayout;horizontal=1;startSize=50;horizontalStack=0;resizeParent=1;resizeLast=0;collapsible=1;marginBottom=0;rounded=0;shadow=0;strokeWidth=1;fontSize=11;" vertex="1" parent="1">
          <mxGeometry x="94" y="399" width="100" height="40" as="geometry">
            <mxRectangle x="130" y="380" width="160" height="26" as="alternateBounds" />
          </mxGeometry>
        </mxCell>
        <mxCell id="CDoJwB1GRzomujANxyZj-40" value="" style="endArrow=none;html=1;rounded=0;" edge="1" parent="1">
          <mxGeometry width="50" height="50" relative="1" as="geometry">
            <mxPoint x="144" y="710" as="sourcePoint" />
            <mxPoint x="144" y="439" as="targetPoint" />
          </mxGeometry>
        </mxCell>
        <mxCell id="CDoJwB1GRzomujANxyZj-41" value="ProfilePic&#xa;&lt;img&gt;" style="swimlane;fontStyle=0;align=center;verticalAlign=top;childLayout=stackLayout;horizontal=1;startSize=50;horizontalStack=0;resizeParent=1;resizeLast=0;collapsible=1;marginBottom=0;rounded=0;shadow=0;strokeWidth=1;fontSize=11;" vertex="1" parent="1">
          <mxGeometry x="6" y="449" width="100" height="40" as="geometry">
            <mxRectangle x="130" y="380" width="160" height="26" as="alternateBounds" />
          </mxGeometry>
        </mxCell>
        <mxCell id="CDoJwB1GRzomujANxyZj-42" value="element&#xa;&lt;button&gt;" style="swimlane;fontStyle=0;align=center;verticalAlign=top;childLayout=stackLayout;horizontal=1;startSize=50;horizontalStack=0;resizeParent=1;resizeLast=0;collapsible=1;marginBottom=0;rounded=0;shadow=0;strokeWidth=1;fontSize=11;" vertex="1" parent="1">
          <mxGeometry x="7" y="569" width="100" height="40" as="geometry">
            <mxRectangle x="130" y="380" width="160" height="26" as="alternateBounds" />
          </mxGeometry>
        </mxCell>
        <mxCell id="CDoJwB1GRzomujANxyZj-43" value="Template Text:&#xa;&quot;{editProfilePic}&quot;" style="swimlane;fontStyle=0;align=center;verticalAlign=top;childLayout=stackLayout;horizontal=1;startSize=50;horizontalStack=0;resizeParent=1;resizeLast=0;collapsible=1;marginBottom=0;rounded=0;shadow=0;strokeWidth=1;fontSize=11;" vertex="1" parent="1">
          <mxGeometry x="6" y="690" width="100" height="40" as="geometry">
            <mxRectangle x="130" y="380" width="160" height="26" as="alternateBounds" />
          </mxGeometry>
        </mxCell>
        <mxCell id="CDoJwB1GRzomujANxyZj-48" value="" style="endArrow=none;html=1;rounded=0;exitX=1;exitY=0.5;exitDx=0;exitDy=0;" edge="1" parent="1" source="CDoJwB1GRzomujANxyZj-41">
          <mxGeometry width="50" height="50" relative="1" as="geometry">
            <mxPoint x="112" y="468" as="sourcePoint" />
            <mxPoint x="144" y="468.43000000000006" as="targetPoint" />
          </mxGeometry>
        </mxCell>
        <mxCell id="CDoJwB1GRzomujANxyZj-79" value="" style="endArrow=none;html=1;rounded=0;exitX=1;exitY=0.5;exitDx=0;exitDy=0;" edge="1" parent="1">
          <mxGeometry width="50" height="50" relative="1" as="geometry">
            <mxPoint x="107" y="588.5699999999999" as="sourcePoint" />
            <mxPoint x="145" y="588" as="targetPoint" />
          </mxGeometry>
        </mxCell>
        <mxCell id="CDoJwB1GRzomujANxyZj-80" value="" style="endArrow=none;html=1;rounded=0;exitX=1;exitY=0.5;exitDx=0;exitDy=0;" edge="1" parent="1">
          <mxGeometry width="50" height="50" relative="1" as="geometry">
            <mxPoint x="106" y="711" as="sourcePoint" />
            <mxPoint x="144" y="710.4300000000001" as="targetPoint" />
          </mxGeometry>
        </mxCell>
        <mxCell id="CDoJwB1GRzomujANxyZj-83" value="element&#xa;&lt;div&gt;" style="swimlane;fontStyle=0;align=center;verticalAlign=top;childLayout=stackLayout;horizontal=1;startSize=50;horizontalStack=0;resizeParent=1;resizeLast=0;collapsible=1;marginBottom=0;rounded=0;shadow=0;strokeWidth=1;fontSize=11;" vertex="1" parent="1">
          <mxGeometry x="245" y="419" width="100" height="40" as="geometry">
            <mxRectangle x="130" y="380" width="160" height="26" as="alternateBounds" />
          </mxGeometry>
        </mxCell>
        <mxCell id="CDoJwB1GRzomujANxyZj-84" value="" style="endArrow=none;html=1;rounded=0;" edge="1" parent="1">
          <mxGeometry width="50" height="50" relative="1" as="geometry">
            <mxPoint x="294.5" y="859" as="sourcePoint" />
            <mxPoint x="295" y="459" as="targetPoint" />
          </mxGeometry>
        </mxCell>
        <mxCell id="CDoJwB1GRzomujANxyZj-85" value="Display Text:&#xa;Display Name&#xa;&lt;h&gt;" style="swimlane;fontStyle=0;align=center;verticalAlign=top;childLayout=stackLayout;horizontal=1;startSize=50;horizontalStack=0;resizeParent=1;resizeLast=0;collapsible=1;marginBottom=0;rounded=0;shadow=0;strokeWidth=1;fontSize=11;" vertex="1" parent="1">
          <mxGeometry x="157" y="469" width="100" height="51" as="geometry">
            <mxRectangle x="130" y="380" width="160" height="26" as="alternateBounds" />
          </mxGeometry>
        </mxCell>
        <mxCell id="CDoJwB1GRzomujANxyZj-86" value="DisplayName&#xa;&lt;span&gt;" style="swimlane;fontStyle=0;align=center;verticalAlign=top;childLayout=stackLayout;horizontal=1;startSize=50;horizontalStack=0;resizeParent=1;resizeLast=0;collapsible=1;marginBottom=0;rounded=0;shadow=0;strokeWidth=1;fontSize=11;" vertex="1" parent="1">
          <mxGeometry x="158" y="589" width="100" height="40" as="geometry">
            <mxRectangle x="130" y="380" width="160" height="26" as="alternateBounds" />
          </mxGeometry>
        </mxCell>
        <mxCell id="CDoJwB1GRzomujANxyZj-87" value="element&#xa;&lt;button&gt;" style="swimlane;fontStyle=0;align=center;verticalAlign=top;childLayout=stackLayout;horizontal=1;startSize=50;horizontalStack=0;resizeParent=1;resizeLast=0;collapsible=1;marginBottom=0;rounded=0;shadow=0;strokeWidth=1;fontSize=11;" vertex="1" parent="1">
          <mxGeometry x="157" y="709" width="100" height="40" as="geometry">
            <mxRectangle x="130" y="380" width="160" height="26" as="alternateBounds" />
          </mxGeometry>
        </mxCell>
        <mxCell id="CDoJwB1GRzomujANxyZj-88" value="Template Text:&#xa;&quot;{editDisplayname}&quot;" style="swimlane;fontStyle=0;align=center;verticalAlign=top;childLayout=stackLayout;horizontal=1;startSize=50;horizontalStack=0;resizeParent=1;resizeLast=0;collapsible=1;marginBottom=0;rounded=0;shadow=0;strokeWidth=1;fontSize=11;" vertex="1" parent="1">
          <mxGeometry x="157" y="838" width="100" height="40" as="geometry">
            <mxRectangle x="130" y="380" width="160" height="26" as="alternateBounds" />
          </mxGeometry>
        </mxCell>
        <mxCell id="CDoJwB1GRzomujANxyZj-89" value="" style="endArrow=none;html=1;rounded=0;exitX=1;exitY=0.5;exitDx=0;exitDy=0;" edge="1" parent="1" source="CDoJwB1GRzomujANxyZj-85">
          <mxGeometry width="50" height="50" relative="1" as="geometry">
            <mxPoint x="263" y="488" as="sourcePoint" />
            <mxPoint x="295" y="488.43000000000006" as="targetPoint" />
          </mxGeometry>
        </mxCell>
        <mxCell id="CDoJwB1GRzomujANxyZj-90" value="" style="endArrow=none;html=1;rounded=0;exitX=1;exitY=0.5;exitDx=0;exitDy=0;" edge="1" parent="1">
          <mxGeometry width="50" height="50" relative="1" as="geometry">
            <mxPoint x="258" y="608.5699999999999" as="sourcePoint" />
            <mxPoint x="296" y="608" as="targetPoint" />
          </mxGeometry>
        </mxCell>
        <mxCell id="CDoJwB1GRzomujANxyZj-91" value="" style="endArrow=none;html=1;rounded=0;exitX=1;exitY=0.5;exitDx=0;exitDy=0;" edge="1" parent="1">
          <mxGeometry width="50" height="50" relative="1" as="geometry">
            <mxPoint x="257" y="729" as="sourcePoint" />
            <mxPoint x="295" y="728.4300000000001" as="targetPoint" />
          </mxGeometry>
        </mxCell>
        <mxCell id="CDoJwB1GRzomujANxyZj-92" value="" style="endArrow=none;html=1;rounded=0;exitX=1;exitY=0.5;exitDx=0;exitDy=0;" edge="1" parent="1">
          <mxGeometry width="50" height="50" relative="1" as="geometry">
            <mxPoint x="257" y="859" as="sourcePoint" />
            <mxPoint x="295" y="858.4300000000001" as="targetPoint" />
          </mxGeometry>
        </mxCell>
        <mxCell id="CDoJwB1GRzomujANxyZj-93" value="element&#xa;&lt;div&gt;" style="swimlane;fontStyle=0;align=center;verticalAlign=top;childLayout=stackLayout;horizontal=1;startSize=50;horizontalStack=0;resizeParent=1;resizeLast=0;collapsible=1;marginBottom=0;rounded=0;shadow=0;strokeWidth=1;fontSize=11;" vertex="1" parent="1">
          <mxGeometry x="419" y="417" width="100" height="40" as="geometry">
            <mxRectangle x="130" y="380" width="160" height="26" as="alternateBounds" />
          </mxGeometry>
        </mxCell>
        <mxCell id="CDoJwB1GRzomujANxyZj-94" value="" style="endArrow=none;html=1;rounded=0;" edge="1" parent="1">
          <mxGeometry width="50" height="50" relative="1" as="geometry">
            <mxPoint x="468.5" y="857" as="sourcePoint" />
            <mxPoint x="469" y="457" as="targetPoint" />
          </mxGeometry>
        </mxCell>
        <mxCell id="CDoJwB1GRzomujANxyZj-95" value="Display Text:&#xa;EmailAddress&#xa;&lt;h&gt;&#xa;" style="swimlane;fontStyle=0;align=center;verticalAlign=top;childLayout=stackLayout;horizontal=1;startSize=50;horizontalStack=0;resizeParent=1;resizeLast=0;collapsible=1;marginBottom=0;rounded=0;shadow=0;strokeWidth=1;fontSize=11;" vertex="1" parent="1">
          <mxGeometry x="331" y="469" width="100" height="40" as="geometry">
            <mxRectangle x="130" y="380" width="160" height="26" as="alternateBounds" />
          </mxGeometry>
        </mxCell>
        <mxCell id="CDoJwB1GRzomujANxyZj-96" value="EmailAddress&#xa;&lt;span&gt;" style="swimlane;fontStyle=0;align=center;verticalAlign=top;childLayout=stackLayout;horizontal=1;startSize=50;horizontalStack=0;resizeParent=1;resizeLast=0;collapsible=1;marginBottom=0;rounded=0;shadow=0;strokeWidth=1;fontSize=11;" vertex="1" parent="1">
          <mxGeometry x="320" y="587" width="112" height="40" as="geometry">
            <mxRectangle x="130" y="380" width="160" height="26" as="alternateBounds" />
          </mxGeometry>
        </mxCell>
        <mxCell id="CDoJwB1GRzomujANxyZj-97" value="element&#xa;&lt;button&gt;" style="swimlane;fontStyle=0;align=center;verticalAlign=top;childLayout=stackLayout;horizontal=1;startSize=50;horizontalStack=0;resizeParent=1;resizeLast=0;collapsible=1;marginBottom=0;rounded=0;shadow=0;strokeWidth=1;fontSize=11;" vertex="1" parent="1">
          <mxGeometry x="331" y="707" width="100" height="40" as="geometry">
            <mxRectangle x="130" y="380" width="160" height="26" as="alternateBounds" />
          </mxGeometry>
        </mxCell>
        <mxCell id="CDoJwB1GRzomujANxyZj-98" value="Template Text:&#xa;&quot;{editEmailAddress}&quot;" style="swimlane;fontStyle=0;align=center;verticalAlign=top;childLayout=stackLayout;horizontal=1;startSize=50;horizontalStack=0;resizeParent=1;resizeLast=0;collapsible=1;marginBottom=0;rounded=0;shadow=0;strokeWidth=1;fontSize=11;" vertex="1" parent="1">
          <mxGeometry x="331" y="836" width="100" height="40" as="geometry">
            <mxRectangle x="130" y="380" width="160" height="26" as="alternateBounds" />
          </mxGeometry>
        </mxCell>
        <mxCell id="CDoJwB1GRzomujANxyZj-99" value="" style="endArrow=none;html=1;rounded=0;exitX=1;exitY=0.5;exitDx=0;exitDy=0;" edge="1" parent="1" source="CDoJwB1GRzomujANxyZj-95">
          <mxGeometry width="50" height="50" relative="1" as="geometry">
            <mxPoint x="437" y="486" as="sourcePoint" />
            <mxPoint x="469" y="486.43000000000006" as="targetPoint" />
          </mxGeometry>
        </mxCell>
        <mxCell id="CDoJwB1GRzomujANxyZj-100" value="" style="endArrow=none;html=1;rounded=0;exitX=1;exitY=0.5;exitDx=0;exitDy=0;" edge="1" parent="1">
          <mxGeometry width="50" height="50" relative="1" as="geometry">
            <mxPoint x="432" y="606.5699999999999" as="sourcePoint" />
            <mxPoint x="470" y="606" as="targetPoint" />
          </mxGeometry>
        </mxCell>
        <mxCell id="CDoJwB1GRzomujANxyZj-101" value="" style="endArrow=none;html=1;rounded=0;exitX=1;exitY=0.5;exitDx=0;exitDy=0;" edge="1" parent="1">
          <mxGeometry width="50" height="50" relative="1" as="geometry">
            <mxPoint x="431" y="727" as="sourcePoint" />
            <mxPoint x="469" y="726.4300000000001" as="targetPoint" />
          </mxGeometry>
        </mxCell>
        <mxCell id="CDoJwB1GRzomujANxyZj-102" value="" style="endArrow=none;html=1;rounded=0;exitX=1;exitY=0.5;exitDx=0;exitDy=0;" edge="1" parent="1">
          <mxGeometry width="50" height="50" relative="1" as="geometry">
            <mxPoint x="431" y="857" as="sourcePoint" />
            <mxPoint x="469" y="856.4300000000001" as="targetPoint" />
          </mxGeometry>
        </mxCell>
        <mxCell id="CDoJwB1GRzomujANxyZj-103" value="element&#xa;&lt;div&gt;" style="swimlane;fontStyle=0;align=center;verticalAlign=top;childLayout=stackLayout;horizontal=1;startSize=50;horizontalStack=0;resizeParent=1;resizeLast=0;collapsible=1;marginBottom=0;rounded=0;shadow=0;strokeWidth=1;fontSize=11;" vertex="1" parent="1">
          <mxGeometry x="570" y="437" width="100" height="40" as="geometry">
            <mxRectangle x="130" y="380" width="160" height="26" as="alternateBounds" />
          </mxGeometry>
        </mxCell>
        <mxCell id="CDoJwB1GRzomujANxyZj-104" value="" style="endArrow=none;html=1;rounded=0;" edge="1" parent="1">
          <mxGeometry width="50" height="50" relative="1" as="geometry">
            <mxPoint x="619.5" y="877" as="sourcePoint" />
            <mxPoint x="620" y="477" as="targetPoint" />
          </mxGeometry>
        </mxCell>
        <mxCell id="CDoJwB1GRzomujANxyZj-105" value="Display Text:&#xa;Password&#xa;&lt;h&gt;" style="swimlane;fontStyle=0;align=center;verticalAlign=top;childLayout=stackLayout;horizontal=1;startSize=50;horizontalStack=0;resizeParent=1;resizeLast=0;collapsible=1;marginBottom=0;rounded=0;shadow=0;strokeWidth=1;fontSize=11;" vertex="1" parent="1">
          <mxGeometry x="482" y="480" width="100" height="50" as="geometry">
            <mxRectangle x="130" y="380" width="160" height="26" as="alternateBounds" />
          </mxGeometry>
        </mxCell>
        <mxCell id="CDoJwB1GRzomujANxyZj-106" value="Password&#xa;&lt;span&gt;" style="swimlane;fontStyle=0;align=center;verticalAlign=top;childLayout=stackLayout;horizontal=1;startSize=50;horizontalStack=0;resizeParent=1;resizeLast=0;collapsible=1;marginBottom=0;rounded=0;shadow=0;strokeWidth=1;fontSize=11;" vertex="1" parent="1">
          <mxGeometry x="483" y="607" width="100" height="40" as="geometry">
            <mxRectangle x="130" y="380" width="160" height="26" as="alternateBounds" />
          </mxGeometry>
        </mxCell>
        <mxCell id="CDoJwB1GRzomujANxyZj-107" value="element&#xa;&lt;button&gt;" style="swimlane;fontStyle=0;align=center;verticalAlign=top;childLayout=stackLayout;horizontal=1;startSize=50;horizontalStack=0;resizeParent=1;resizeLast=0;collapsible=1;marginBottom=0;rounded=0;shadow=0;strokeWidth=1;fontSize=11;" vertex="1" parent="1">
          <mxGeometry x="482" y="727" width="98" height="39.2" as="geometry">
            <mxRectangle x="130" y="380" width="160" height="26" as="alternateBounds" />
          </mxGeometry>
        </mxCell>
        <mxCell id="CDoJwB1GRzomujANxyZj-108" value="Template Text:&#xa;&quot;{editPassword}&quot;" style="swimlane;fontStyle=0;align=center;verticalAlign=top;childLayout=stackLayout;horizontal=1;startSize=50;horizontalStack=0;resizeParent=1;resizeLast=0;collapsible=1;marginBottom=0;rounded=0;shadow=0;strokeWidth=1;fontSize=11;" vertex="1" parent="1">
          <mxGeometry x="482" y="856" width="100" height="40" as="geometry">
            <mxRectangle x="130" y="380" width="160" height="26" as="alternateBounds" />
          </mxGeometry>
        </mxCell>
        <mxCell id="CDoJwB1GRzomujANxyZj-109" value="" style="endArrow=none;html=1;rounded=0;exitX=1;exitY=0.5;exitDx=0;exitDy=0;" edge="1" parent="1" source="CDoJwB1GRzomujANxyZj-105">
          <mxGeometry width="50" height="50" relative="1" as="geometry">
            <mxPoint x="588" y="506" as="sourcePoint" />
            <mxPoint x="620" y="506.43000000000006" as="targetPoint" />
          </mxGeometry>
        </mxCell>
        <mxCell id="CDoJwB1GRzomujANxyZj-110" value="" style="endArrow=none;html=1;rounded=0;exitX=1;exitY=0.5;exitDx=0;exitDy=0;" edge="1" parent="1">
          <mxGeometry width="50" height="50" relative="1" as="geometry">
            <mxPoint x="583" y="626.5699999999999" as="sourcePoint" />
            <mxPoint x="621" y="626" as="targetPoint" />
          </mxGeometry>
        </mxCell>
        <mxCell id="CDoJwB1GRzomujANxyZj-111" value="" style="endArrow=none;html=1;rounded=0;exitX=1;exitY=0.5;exitDx=0;exitDy=0;" edge="1" parent="1">
          <mxGeometry width="50" height="50" relative="1" as="geometry">
            <mxPoint x="582" y="747" as="sourcePoint" />
            <mxPoint x="620" y="746.4300000000001" as="targetPoint" />
          </mxGeometry>
        </mxCell>
        <mxCell id="CDoJwB1GRzomujANxyZj-112" value="" style="endArrow=none;html=1;rounded=0;exitX=1;exitY=0.5;exitDx=0;exitDy=0;" edge="1" parent="1">
          <mxGeometry width="50" height="50" relative="1" as="geometry">
            <mxPoint x="582" y="877" as="sourcePoint" />
            <mxPoint x="620" y="876.4300000000001" as="targetPoint" />
          </mxGeometry>
        </mxCell>
        <mxCell id="CDoJwB1GRzomujANxyZj-113" value="element&#xa;&lt;div&gt;" style="swimlane;fontStyle=0;align=center;verticalAlign=top;childLayout=stackLayout;horizontal=1;startSize=50;horizontalStack=0;resizeParent=1;resizeLast=0;collapsible=1;marginBottom=0;rounded=0;shadow=0;strokeWidth=1;fontSize=11;" vertex="1" parent="1">
          <mxGeometry x="730" y="447" width="100" height="40" as="geometry">
            <mxRectangle x="130" y="380" width="160" height="26" as="alternateBounds" />
          </mxGeometry>
        </mxCell>
        <mxCell id="CDoJwB1GRzomujANxyZj-114" value="" style="endArrow=none;html=1;rounded=0;" edge="1" parent="1">
          <mxGeometry width="50" height="50" relative="1" as="geometry">
            <mxPoint x="779.5" y="887" as="sourcePoint" />
            <mxPoint x="780" y="487" as="targetPoint" />
          </mxGeometry>
        </mxCell>
        <mxCell id="CDoJwB1GRzomujANxyZj-115" value="Display Text:&#xa;Delete Account&#xa;&lt;h&gt;" style="swimlane;fontStyle=0;align=center;verticalAlign=top;childLayout=stackLayout;horizontal=1;startSize=50;horizontalStack=0;resizeParent=1;resizeLast=0;collapsible=1;marginBottom=0;rounded=0;shadow=0;strokeWidth=1;fontSize=11;" vertex="1" parent="1">
          <mxGeometry x="642" y="490" width="100" height="47" as="geometry">
            <mxRectangle x="130" y="380" width="160" height="26" as="alternateBounds" />
          </mxGeometry>
        </mxCell>
        <mxCell id="CDoJwB1GRzomujANxyZj-116" value="Delete Account &#xa;&lt;span&gt;" style="swimlane;fontStyle=0;align=center;verticalAlign=top;childLayout=stackLayout;horizontal=1;startSize=50;horizontalStack=0;resizeParent=1;resizeLast=0;collapsible=1;marginBottom=0;rounded=0;shadow=0;strokeWidth=1;fontSize=11;" vertex="1" parent="1">
          <mxGeometry x="643" y="617" width="100" height="40" as="geometry">
            <mxRectangle x="130" y="380" width="160" height="26" as="alternateBounds" />
          </mxGeometry>
        </mxCell>
        <mxCell id="CDoJwB1GRzomujANxyZj-117" value="element&#xa;&lt;button&gt;" style="swimlane;fontStyle=0;align=center;verticalAlign=top;childLayout=stackLayout;horizontal=1;startSize=50;horizontalStack=0;resizeParent=1;resizeLast=0;collapsible=1;marginBottom=0;rounded=0;shadow=0;strokeWidth=1;fontSize=11;" vertex="1" parent="1">
          <mxGeometry x="642" y="737" width="98" height="39.2" as="geometry">
            <mxRectangle x="130" y="380" width="160" height="26" as="alternateBounds" />
          </mxGeometry>
        </mxCell>
        <mxCell id="CDoJwB1GRzomujANxyZj-118" value="Template Text:&#xa;&quot;{deleteAccount}&quot;" style="swimlane;fontStyle=0;align=center;verticalAlign=top;childLayout=stackLayout;horizontal=1;startSize=50;horizontalStack=0;resizeParent=1;resizeLast=0;collapsible=1;marginBottom=0;rounded=0;shadow=0;strokeWidth=1;fontSize=11;" vertex="1" parent="1">
          <mxGeometry x="642" y="866" width="100" height="40" as="geometry">
            <mxRectangle x="130" y="380" width="160" height="26" as="alternateBounds" />
          </mxGeometry>
        </mxCell>
        <mxCell id="CDoJwB1GRzomujANxyZj-119" value="" style="endArrow=none;html=1;rounded=0;exitX=1;exitY=0.5;exitDx=0;exitDy=0;" edge="1" parent="1" source="CDoJwB1GRzomujANxyZj-115">
          <mxGeometry width="50" height="50" relative="1" as="geometry">
            <mxPoint x="748" y="516" as="sourcePoint" />
            <mxPoint x="780" y="516.4300000000001" as="targetPoint" />
          </mxGeometry>
        </mxCell>
        <mxCell id="CDoJwB1GRzomujANxyZj-120" value="" style="endArrow=none;html=1;rounded=0;exitX=1;exitY=0.5;exitDx=0;exitDy=0;" edge="1" parent="1">
          <mxGeometry width="50" height="50" relative="1" as="geometry">
            <mxPoint x="743" y="636.5699999999999" as="sourcePoint" />
            <mxPoint x="781" y="636" as="targetPoint" />
          </mxGeometry>
        </mxCell>
        <mxCell id="CDoJwB1GRzomujANxyZj-121" value="" style="endArrow=none;html=1;rounded=0;exitX=1;exitY=0.5;exitDx=0;exitDy=0;" edge="1" parent="1">
          <mxGeometry width="50" height="50" relative="1" as="geometry">
            <mxPoint x="742" y="757" as="sourcePoint" />
            <mxPoint x="780" y="756.4300000000001" as="targetPoint" />
          </mxGeometry>
        </mxCell>
        <mxCell id="CDoJwB1GRzomujANxyZj-122" value="" style="endArrow=none;html=1;rounded=0;exitX=1;exitY=0.5;exitDx=0;exitDy=0;" edge="1" parent="1">
          <mxGeometry width="50" height="50" relative="1" as="geometry">
            <mxPoint x="742" y="887" as="sourcePoint" />
            <mxPoint x="780" y="886.4300000000001" as="targetPoint" />
          </mxGeometry>
        </mxCell>
        <mxCell id="CDoJwB1GRzomujANxyZj-123" value="" style="endArrow=none;html=1;rounded=0;" edge="1" parent="1">
          <mxGeometry width="50" height="50" relative="1" as="geometry">
            <mxPoint x="140" y="360" as="sourcePoint" />
            <mxPoint x="780" y="360" as="targetPoint" />
          </mxGeometry>
        </mxCell>
        <mxCell id="CDoJwB1GRzomujANxyZj-124" value="" style="endArrow=none;html=1;rounded=0;entryX=0.5;entryY=1;entryDx=0;entryDy=0;" edge="1" parent="1" target="CDoJwB1GRzomujANxyZj-33">
          <mxGeometry width="50" height="50" relative="1" as="geometry">
            <mxPoint x="420" y="360" as="sourcePoint" />
            <mxPoint x="490" y="317" as="targetPoint" />
          </mxGeometry>
        </mxCell>
        <mxCell id="CDoJwB1GRzomujANxyZj-125" value="" style="endArrow=none;html=1;rounded=0;" edge="1" parent="1">
          <mxGeometry width="50" height="50" relative="1" as="geometry">
            <mxPoint x="140" y="398" as="sourcePoint" />
            <mxPoint x="140" y="360" as="targetPoint" />
          </mxGeometry>
        </mxCell>
        <mxCell id="CDoJwB1GRzomujANxyZj-126" value="" style="endArrow=none;html=1;rounded=0;entryX=0.5;entryY=1;entryDx=0;entryDy=0;" edge="1" parent="1">
          <mxGeometry width="50" height="50" relative="1" as="geometry">
            <mxPoint x="292" y="418" as="sourcePoint" />
            <mxPoint x="292" y="361" as="targetPoint" />
          </mxGeometry>
        </mxCell>
        <mxCell id="CDoJwB1GRzomujANxyZj-127" value="" style="endArrow=none;html=1;rounded=0;entryX=0.5;entryY=1;entryDx=0;entryDy=0;exitX=0.5;exitY=0;exitDx=0;exitDy=0;" edge="1" parent="1" source="CDoJwB1GRzomujANxyZj-103">
          <mxGeometry width="50" height="50" relative="1" as="geometry">
            <mxPoint x="619.44" y="417" as="sourcePoint" />
            <mxPoint x="619.44" y="360" as="targetPoint" />
          </mxGeometry>
        </mxCell>
        <mxCell id="CDoJwB1GRzomujANxyZj-128" value="" style="endArrow=none;html=1;rounded=0;entryX=0.5;entryY=1;entryDx=0;entryDy=0;" edge="1" parent="1">
          <mxGeometry width="50" height="50" relative="1" as="geometry">
            <mxPoint x="469" y="416" as="sourcePoint" />
            <mxPoint x="469" y="359" as="targetPoint" />
          </mxGeometry>
        </mxCell>
        <mxCell id="CDoJwB1GRzomujANxyZj-129" value="" style="endArrow=none;html=1;rounded=0;entryX=0.5;entryY=1;entryDx=0;entryDy=0;exitX=0.5;exitY=0;exitDx=0;exitDy=0;" edge="1" parent="1" source="CDoJwB1GRzomujANxyZj-113">
          <mxGeometry width="50" height="50" relative="1" as="geometry">
            <mxPoint x="780" y="417" as="sourcePoint" />
            <mxPoint x="780" y="360" as="targetPoint" />
          </mxGeometry>
        </mxCell>
        <mxCell id="CDoJwB1GRzomujANxyZj-130" value="Display Text:&#xa;Email Address&#xa;&lt;h&gt;&#xa;" style="swimlane;fontStyle=0;align=center;verticalAlign=top;childLayout=stackLayout;horizontal=1;startSize=50;horizontalStack=0;resizeParent=1;resizeLast=0;collapsible=1;marginBottom=0;rounded=0;shadow=0;strokeWidth=1;fontSize=11;" vertex="1" parent="1">
          <mxGeometry x="331" y="469" width="100" height="51" as="geometry">
            <mxRectangle x="130" y="380" width="160" height="26" as="alternateBounds" />
          </mxGeometry>
        </mxCell>
      </root>
    </mxGraphModel>
  </diagram>
</mxfile>
